<?xml version="1.0" encoding="UTF-8"?>
<svg xmlns="http://www.w3.org/2000/svg" xmlns:xlink="http://www.w3.org/1999/xlink" viewBox="0 0 480 480" width="480px" height="480px">
<g id="surface44733713">
<path style=" stroke:none;fill-rule:nonzero;fill:rgb(97.254902%,62.352943%,0.784314%);fill-opacity:1;" d="M 416 64 L 64 64 C 46.320312 64 32 78.320312 32 96 L 32 384 C 32 401.679688 46.320312 416 64 416 L 416 416 C 433.679688 416 448 401.679688 448 384 L 448 96 C 448 78.320312 433.679688 64 416 64 Z M 112 384 L 64 384 L 64 336 L 112 336 Z M 112 304 L 64 304 L 64 256 L 112 256 Z M 112 224 L 64 224 L 64 176 L 112 176 Z M 112 144 L 64 144 L 64 96 L 112 96 Z M 310.960938 254.257812 L 199.375 317.96875 C 197.136719 319.152344 194.703125 320 192 320 C 183.167969 320 176 312.832031 176 304 L 176 176 C 176 167.167969 183.167969 160 192 160 C 194.703125 160 197.136719 160.847656 199.375 162.03125 L 310.960938 225.742188 C 316.273438 228.351562 320 233.695312 320 240 C 320 246.304688 316.273438 251.648438 310.960938 254.257812 Z M 416 384 L 368 384 L 368 336 L 416 336 Z M 416 304 L 368 304 L 368 256 L 416 256 Z M 416 224 L 368 224 L 368 176 L 416 176 Z M 416 144 L 368 144 L 368 96 L 416 96 Z M 416 144 "/>
</g>
</svg>
