<?xml version="1.0" encoding="UTF-8"?>
<svg xmlns="http://www.w3.org/2000/svg" xmlns:xlink="http://www.w3.org/1999/xlink" viewBox="0 0 90 90" width="90px" height="90px">
<g id="surface49079345">
<path style=" stroke:none;fill-rule:nonzero;fill:rgb(100%,100%,100%);fill-opacity:1;" d="M 78 75 C 78 74.929688 77.933594 67.6875 72.25 60.332031 C 64.894531 50.8125 51.359375 45.554688 33 45.042969 L 33 57 C 33 58.210938 32.269531 59.308594 31.148438 59.773438 C 30.027344 60.238281 28.738281 59.980469 27.878906 59.121094 L 6.878906 38.121094 C 5.707031 36.949219 5.707031 35.050781 6.878906 33.878906 L 27.878906 12.878906 C 28.738281 12.019531 30.027344 11.761719 31.148438 12.226562 C 32.269531 12.691406 33 13.789062 33 15 L 33 27.046875 C 82.546875 28.660156 84 70.183594 84 75 C 84 76.660156 82.65625 78 81 78 C 79.34375 78 78 76.660156 78 75 Z M 78 75 "/>
</g>
</svg>
