<svg xmlns="http://www.w3.org/2000/svg"  viewBox="0 0 48 48" width="96px" height="96px"><path fill="#d7141a" d="M2,12.4c14.7-5,29.3,5,44,0c0,8.4,0,15.7,0,24.1c-14.7,5-29.3-5-44,0C2,28.2,2,20.8,2,12.4z"/><path fill="#eee" d="M2,11.4c14.7-5,29.3,5,44,0c0,4.2,0,8.4,0,12.6c-14.7,5-29.3-5-44,0C2,19.8,2,15.6,2,11.4z"/><path fill="#11457e" d="M24,24C16.7,18.6,9.3,13.1,2,11.4c0,8.4,0,16.7,0,25.1C9.3,29.9,16.7,26.9,24,24z"/><linearGradient id="DZJ7~vxJfGtpkO_CybmZLa" x1="2" x2="46" y1="26" y2="26" gradientTransform="matrix(1 0 0 -1 0 50)" gradientUnits="userSpaceOnUse"><stop offset="0" stop-color="#fff" stop-opacity="0"/><stop offset=".207" stop-color="#fff" stop-opacity=".6"/><stop offset=".364" stop-color="#fff" stop-opacity=".028"/><stop offset=".372" stop-color="#fff" stop-opacity="0"/><stop offset=".587" stop-color="#fff" stop-opacity="0"/><stop offset=".697" stop-color="#fff" stop-opacity=".5"/><stop offset=".977" stop-color="#fff" stop-opacity=".032"/><stop offset=".996" stop-color="#fff" stop-opacity="0"/></linearGradient><path fill="url(#DZJ7~vxJfGtpkO_CybmZLa)" d="M2,11.4c0,4.2,0,8.4,0,12.6s0,8.4,0,12.6c14.7-5,29.3,5,44,0c0-4.2,0-8.4,0-12.6s0-8.4,0-12.6	C31.3,16.5,16.7,6.4,2,11.4z" opacity=".25"/><linearGradient id="DZJ7~vxJfGtpkO_CybmZLb" x1="2" x2="46" y1="26" y2="26" gradientTransform="matrix(1 0 0 -1 0 50)" gradientUnits="userSpaceOnUse"><stop offset=".004" stop-opacity=".8"/><stop offset=".052" stop-color="#00040e" stop-opacity=".59"/><stop offset=".129" stop-color="#00091e" stop-opacity=".256"/><stop offset=".188" stop-color="#000b24" stop-opacity="0"/><stop offset=".377" stop-color="#000b24" stop-opacity=".018"/><stop offset=".447" stop-color="#000613" stop-opacity=".25"/><stop offset=".513" stop-opacity=".4"/><stop offset=".579" stop-color="#000104" stop-opacity=".34"/><stop offset=".642" stop-color="#00050f" stop-opacity=".146"/><stop offset=".704" stop-color="#000b23" stop-opacity=".025"/><stop offset=".708" stop-color="#000b24" stop-opacity=".018"/><stop offset=".83" stop-color="#000b24" stop-opacity=".018"/><stop offset=".885" stop-color="#00091e" stop-opacity=".237"/><stop offset=".958" stop-color="#00040d" stop-opacity=".533"/><stop offset="1" stop-opacity=".7"/></linearGradient><path fill="url(#DZJ7~vxJfGtpkO_CybmZLb)" d="M2,11.4c0,4.2,0,8.4,0,12.6s0,8.4,0,12.6c14.7-5,29.3,5,44,0c0-4.2,0-8.4,0-12.6s0-8.4,0-12.6	C31.3,16.5,16.7,6.4,2,11.4z" opacity=".7"/></svg>