<?xml version="1.0" encoding="UTF-8"?>
<svg xmlns="http://www.w3.org/2000/svg" xmlns:xlink="http://www.w3.org/1999/xlink" viewBox="0 0 480 480" width="480px" height="480px">
<g id="surface70740965">
<path style=" stroke:none;fill-rule:nonzero;fill:rgb(94.117647%,38.039216%,5.882353%);fill-opacity:1;" d="M 416 48 C 414.464844 48.011719 412.9375 48.242188 411.46875 48.6875 C 411.035156 48.804688 410.609375 48.941406 410.1875 49.09375 L 58.40625 160.96875 L 58.40625 161.03125 C 52.15625 163.363281 48.007812 169.328125 48 176 C 48.011719 181.585938 50.9375 186.765625 55.71875 189.65625 L 162.625 274.46875 L 373.96875 106.03125 L 205.53125 317.375 L 290.28125 424.21875 C 293.167969 429.042969 298.378906 431.996094 304 432 C 310.671875 431.992188 316.636719 427.84375 318.96875 421.59375 L 319.03125 421.59375 L 431 69.5 C 431.113281 69.179688 431.21875 68.855469 431.3125 68.53125 C 431.757812 67.0625 431.988281 65.535156 432 64 C 432 55.164062 424.835938 48 416 48 Z M 416 48 "/>
</g>
</svg>
