<?xml version="1.0" encoding="UTF-8"?>
<svg xmlns="http://www.w3.org/2000/svg" xmlns:xlink="http://www.w3.org/1999/xlink" viewBox="0 0 480 480" width="480px" height="480px">
<g id="surface67058793">
<path style=" stroke:none;fill-rule:nonzero;fill:rgb(85.09804%,19.607843%,0.784314%);fill-opacity:1;" d="M 415.6875 47.84375 C 415.089844 47.863281 414.496094 47.914062 413.90625 48 L 320 48 C 314.230469 47.917969 308.863281 50.949219 305.953125 55.933594 C 303.042969 60.917969 303.042969 67.082031 305.953125 72.066406 C 308.863281 77.050781 314.230469 80.082031 320 80 L 377.375 80 L 212.6875 244.6875 C 208.507812 248.699219 206.824219 254.660156 208.285156 260.265625 C 209.746094 265.875 214.125 270.253906 219.734375 271.714844 C 225.339844 273.175781 231.300781 271.492188 235.3125 267.3125 L 400 102.625 L 400 160 C 399.917969 165.769531 402.949219 171.136719 407.933594 174.046875 C 412.917969 176.957031 419.082031 176.957031 424.066406 174.046875 C 429.050781 171.136719 432.082031 165.769531 432 160 L 432 66.03125 C 432.644531 61.367188 431.203125 56.660156 428.0625 53.15625 C 424.917969 49.652344 420.390625 47.707031 415.6875 47.84375 Z M 96 112 C 78.511719 112 64 126.511719 64 144 L 64 384 C 64 401.488281 78.511719 416 96 416 L 336 416 C 353.488281 416 368 401.488281 368 384 L 368 182.75 L 336 214.75 L 336 384 L 96 384 L 96 144 L 265.25 144 L 297.25 112 Z M 96 112 "/>
</g>
</svg>
