<?xml version="1.0" encoding="UTF-8"?>
<svg xmlns="http://www.w3.org/2000/svg" xmlns:xlink="http://www.w3.org/1999/xlink" viewBox="0 0 480 480" width="480px" height="480px">
<g id="surface46934354">
<path style=" stroke:none;fill-rule:nonzero;fill:rgb(97.254902%,8.235294%,0.784314%);fill-opacity:1;" d="M 264 48 C 241.910156 48 224 65.910156 224 88 C 224 110.089844 241.910156 128 264 128 C 286.089844 128 304 110.089844 304 88 C 304 65.910156 286.089844 48 264 48 Z M 176.5 115.78125 C 174.101562 116.011719 171.714844 116.453125 169.375 117.15625 L 116.78125 133 C 109.46875 135.191406 103.171875 140.019531 99.15625 146.53125 L 77.96875 180.90625 L 70.84375 177.53125 C 68.4375 176.347656 65.773438 175.789062 63.09375 175.90625 C 55.691406 176.214844 49.464844 181.566406 48.054688 188.84375 C 46.640625 196.117188 50.40625 203.410156 57.15625 206.46875 L 64.09375 209.75 C 64.984375 217.859375 71.839844 224 80 224 C 83.097656 223.996094 86.125 223.097656 88.71875 221.40625 L 255.40625 300.375 L 256 303.84375 C 256 303.894531 256 303.949219 256 304 C 256 312.835938 263.164062 320 272 320 C 276.808594 320.003906 281.363281 317.847656 284.40625 314.125 L 336.40625 338.75 C 332.871094 346.265625 329.519531 352 326.1875 352 C 314.570312 352 301.308594 358.472656 293.46875 373.6875 C 289.164062 382.023438 272 416 272 416 L 448 416 C 448 416 405.46875 325.523438 400.1875 314.59375 C 390.667969 294.867188 379.863281 288 373.625 288 C 363.761719 288 356.199219 297.816406 349.875 309.71875 L 285.21875 279.09375 L 274.15625 179.25 C 272.8125 167.203125 265.625 156.585938 254.9375 150.84375 L 197.4375 119.96875 C 190.980469 116.5 183.691406 115.09375 176.5 115.78125 Z M 160 157.96875 L 137.90625 209.28125 L 107.8125 195.03125 L 126.21875 167.34375 Z M 238.5625 201.5 L 248.84375 261.84375 L 219.6875 248.03125 Z M 114.53125 267.5 L 80.625 395.59375 C 80.210938 397.027344 80.003906 398.507812 80 400 C 80 408.835938 87.164062 416 96 416 C 102.015625 415.996094 107.523438 412.613281 110.25 407.25 L 110.28125 407.25 L 110.75 406.21875 C 110.78125 406.144531 110.8125 406.074219 110.84375 406 L 157.6875 298.625 L 194.625 327.34375 L 208.15625 402.21875 C 209.261719 410.121094 216.019531 416 224 416 C 232.777344 416 239.914062 408.933594 240 400.15625 L 240 326.90625 Z M 114.53125 267.5 "/>
</g>
</svg>
